<svg width="100" height="100" viewBox="0 0 100 100" fill="none" xmlns="http://www.w3.org/2000/svg">
<g clip-path="url(#clip0_2002_30)">
<path d="M89.6 0H10.4C4.65624 0 0 4.65624 0 10.4V89.6C0 95.3438 4.65624 100 10.4 100H89.6C95.3438 100 100 95.3438 100 89.6V10.4C100 4.65624 95.3438 0 89.6 0Z" fill="url(#paint0_linear_2002_30)"/>
<path d="M23.7998 74.9H19.7998V72.8H37.3998V74.9H33.0998V80.1C33.0998 80.3 33.0998 80.4 33.2998 80.5C33.3998 80.6 33.5998 80.7 33.6998 80.7H37.3998L36.4998 82.6H32.2998C31.9998 82.6 31.7998 82.6 31.4998 82.4C31.1998 82.2 30.9998 82.1 30.8998 82C30.6998 81.8 30.5998 81.6 30.4998 81.4C30.3998 81.2 30.2998 80.9 30.2998 80.6V74.9H26.6998L23.1998 82.6H20.2998L23.7998 74.9ZM20.5998 68.1H36.7998V70.2H20.5998V68.1Z" fill="white"/>
<path d="M40.7996 78L44.3996 71.7H41.1996V69.7H42.6996L41.9996 68.1H44.8996L45.5996 69.7H48.2996L45.9996 73.9H47.4996L48.7996 79.2H46.4996L45.5996 75.5V82.7H42.9996V78.1H40.5996L40.7996 78ZM49.2996 68.1H56.6996C57.1996 68.1 57.6996 68.3 58.0996 68.7C58.4996 69.1 58.6996 69.5 58.6996 70V78.9H55.8996V70.6C55.8996 70.3 55.8996 70.1 55.5996 69.9C55.3996 69.7 55.1996 69.6 54.8996 69.6H51.8996V78.8L52.6996 77.9V71.4H55.2996V78.6L54.4996 79.5H56.5996V80.4C56.5996 80.6 56.5996 80.7 56.7996 80.8C56.8996 80.9 57.0996 81 57.2996 81H59.2996L58.3996 82.5H56.1996C55.8996 82.5 55.5996 82.5 55.2996 82.3C54.9996 82.2 54.7996 82 54.5996 81.8C54.3996 81.6 54.1996 81.4 54.0996 81.1C53.9996 80.8 53.8996 80.5 53.8996 80.2V79.9L51.7996 82.4H48.4996L51.7996 78.7H49.2996V67.9V68.1Z" fill="white"/>
<path d="M64.9999 77.9H62.3999L65.5999 75.2H62.7999V68.2H79.5999V73C79.5999 73.3 79.5999 73.6 79.3999 73.9C79.2999 74.2 79.0999 74.4 78.8999 74.6C78.6999 74.8 78.4999 75 78.1999 75.1C77.8999 75.2 77.5999 75.3 77.2999 75.3H76.8999L80.0999 78H77.0999V82.5H74.3999V77.1H75.9999L73.9999 75.3H68.4999L66.4999 77.1H67.5999V80.5L66.6999 82.6H63.9999L64.8999 80.5V78L64.9999 77.9ZM65.0999 70V71H70.0999V70H65.0999ZM65.0999 73.5H70.0999V72.5H65.0999V73.5ZM77.3999 70H72.7999V71H77.3999V70ZM76.6999 73.5C76.8999 73.5 76.9999 73.5 77.0999 73.3C77.1999 73.2 77.2999 73 77.2999 72.8V72.5H72.6999V73.5H76.6999Z" fill="white"/>
<g filter="url(#filter0_d_2002_30)">
<path d="M13.196 19V17.334H15.1C15.6973 17.334 16.136 17.3153 16.416 17.278C16.7053 17.2313 16.9247 17.1427 17.074 17.012C17.2793 16.8533 17.4193 16.6247 17.494 16.326C17.578 16.0273 17.62 15.556 17.62 14.912V9.662H19.594V14.912C19.594 15.5653 19.5707 16.06 19.524 16.396C19.4773 16.732 19.384 17.0493 19.244 17.348C18.8893 18.1413 18.2453 18.65 17.312 18.874C16.864 18.958 16.1967 19 15.31 19H13.196ZM27.2832 12.182V13.638H23.9652C23.5825 13.638 23.3398 13.6567 23.2372 13.694C23.0225 13.7687 22.9152 13.9507 22.9152 14.24C22.9152 14.4827 23.0178 14.6693 23.2232 14.8C23.3352 14.8747 23.6385 14.912 24.1332 14.912H25.2392C25.9485 14.912 26.5085 15.0613 26.9192 15.36C27.3765 15.696 27.6052 16.1907 27.6052 16.844C27.6052 17.3387 27.4652 17.7913 27.1852 18.202C26.9798 18.5287 26.7278 18.7433 26.4292 18.846C26.1398 18.9487 25.6498 19 24.9592 19H21.0812V17.544H24.4272C24.8378 17.544 25.1178 17.5393 25.2672 17.53C25.6032 17.4927 25.7712 17.3013 25.7712 16.956C25.7712 16.676 25.6592 16.4847 25.4352 16.382C25.3232 16.326 25.0525 16.298 24.6232 16.298H23.4892C23.0412 16.298 22.6958 16.27 22.4532 16.214C22.2198 16.158 22.0005 16.0553 21.7952 15.906C21.5432 15.7287 21.3425 15.486 21.1932 15.178C21.0532 14.8607 20.9832 14.5247 20.9832 14.17C20.9832 13.4887 21.2305 12.9473 21.7252 12.546C22.0238 12.3033 22.5418 12.182 23.2792 12.182H27.2832ZM32.1811 12.084C33.4411 12.084 34.3698 12.448 34.9671 13.176C35.5178 13.8387 35.7931 14.674 35.7931 15.682C35.7931 16.746 35.4478 17.5953 34.7571 18.23C34.1224 18.8087 33.2544 19.098 32.1531 19.098C31.0144 19.098 30.1231 18.7713 29.4791 18.118C28.8818 17.53 28.5831 16.6713 28.5831 15.542C28.5831 14.59 28.8678 13.7967 29.4371 13.162C30.0718 12.4527 30.9864 12.0933 32.1811 12.084ZM32.1951 13.512C31.0658 13.512 30.5011 14.212 30.5011 15.612C30.5011 16.1813 30.5944 16.6153 30.7811 16.914C31.0891 17.418 31.5651 17.67 32.2091 17.67C33.3198 17.67 33.8751 16.9747 33.8751 15.584C33.8751 14.2213 33.3151 13.5307 32.1951 13.512ZM37.1795 12.182H40.7915C41.3329 12.182 41.7435 12.224 42.0235 12.308C42.3129 12.3827 42.5742 12.5227 42.8075 12.728C43.2835 13.1667 43.5215 13.8573 43.5215 14.8V19H41.6455V14.59C41.6455 14.254 41.5709 14.0113 41.4215 13.862C41.2722 13.7127 41.0249 13.638 40.6795 13.638H39.0555V19H37.1795V12.182ZM46.8553 17.348H52.9593V19H44.8813V16.522C44.8626 15.4767 45.1239 14.6787 45.6653 14.128C45.9173 13.8853 46.1926 13.722 46.4913 13.638C46.7899 13.554 47.2566 13.512 47.8913 13.512H49.4173C49.9306 13.512 50.2946 13.4513 50.5093 13.33C50.8453 13.134 51.0133 12.8447 51.0133 12.462C51.0133 12.042 50.8593 11.734 50.5513 11.538C50.3179 11.398 49.9399 11.328 49.4173 11.328H45.0213V9.662H49.8373C51.0319 9.662 51.8626 9.86267 52.3293 10.264C52.6093 10.488 52.8239 10.7913 52.9733 11.174C53.1226 11.5473 53.1973 11.9533 53.1973 12.392C53.1973 12.9333 53.1039 13.414 52.9173 13.834C52.7306 14.2447 52.4739 14.548 52.1473 14.744C51.6619 15.0333 50.9339 15.178 49.9633 15.178H48.6473C48.1806 15.178 47.8306 15.206 47.5973 15.262C47.3733 15.318 47.2053 15.4207 47.0933 15.57C46.9439 15.7193 46.8646 16.0367 46.8553 16.522V17.348ZM60.2271 12.182V13.638H57.9871C57.2311 13.638 56.7085 13.806 56.4191 14.142C56.1391 14.4593 55.9991 14.9447 55.9991 15.598C55.9991 16.326 56.2278 16.858 56.6851 17.194C56.8718 17.3247 57.0725 17.418 57.2871 17.474C57.5111 17.5207 57.8191 17.544 58.2111 17.544H60.2271V19H57.6651C56.9745 19 56.4285 18.93 56.0271 18.79C55.6258 18.65 55.2711 18.4073 54.9631 18.062C54.3751 17.4087 54.0811 16.578 54.0811 15.57C54.0811 14.3567 54.4311 13.4513 55.1311 12.854C55.4111 12.6113 55.7471 12.4387 56.1391 12.336C56.5311 12.2333 57.0398 12.182 57.6651 12.182H60.2271ZM63.5282 9.662V12.182H65.4462C66.0155 12.182 66.4589 12.2287 66.7762 12.322C67.1029 12.406 67.3782 12.56 67.6022 12.784C68.0315 13.176 68.2462 13.834 68.2462 14.758V19H66.3702V15.122C66.3702 14.758 66.3515 14.5013 66.3142 14.352C66.2862 14.1933 66.2209 14.058 66.1182 13.946C65.9315 13.75 65.5769 13.6473 65.0542 13.638H63.5282V19H61.6522V9.662H63.5282ZM74.696 14.856C74.696 14.38 74.598 14.058 74.402 13.89C74.2154 13.722 73.8374 13.638 73.268 13.638H70.104V12.182H73.268C73.8374 12.182 74.2294 12.196 74.444 12.224C74.6587 12.2427 74.878 12.2847 75.102 12.35C76.138 12.742 76.628 13.68 76.572 15.164V19H72.624C71.9147 19 71.4247 18.9813 71.154 18.944C70.8834 18.8973 70.6454 18.8087 70.44 18.678C69.8894 18.3047 69.614 17.74 69.614 16.984C69.614 16.5267 69.7214 16.1207 69.936 15.766C70.16 15.402 70.454 15.1547 70.818 15.024C71.1354 14.912 71.6627 14.856 72.4 14.856H74.696ZM74.696 16.312H72.54H72.218C72.0034 16.312 71.8307 16.368 71.7 16.48C71.5787 16.592 71.518 16.746 71.518 16.942C71.518 17.1567 71.5927 17.3107 71.742 17.404C71.9007 17.4973 72.1667 17.544 72.54 17.544H74.696V16.312ZM78.3182 12.182H81.0902C81.6595 12.182 82.0982 12.224 82.4062 12.308C82.7235 12.3827 82.9849 12.5133 83.1902 12.7C83.3955 12.8867 83.5402 13.12 83.6242 13.4C83.7082 13.68 83.7502 14.0813 83.7502 14.604V15.262H81.9442V14.898C81.9442 14.4127 81.8602 14.0813 81.6922 13.904C81.5242 13.7267 81.2022 13.638 80.7262 13.638H80.1942V19H78.3182V12.182ZM85.371 12.182V9.662H87.247V12.182H88.983V13.638H87.247V16.116C87.247 16.6947 87.2984 17.0587 87.401 17.208C87.5597 17.432 87.8397 17.544 88.241 17.544H88.983V19H87.625C86.813 19 86.2344 18.804 85.889 18.412C85.5437 18.02 85.371 17.362 85.371 16.438V13.638H84.181V12.182H85.371Z" fill="white"/>
</g>
<rect x="18" y="28" width="64" height="34" rx="3" fill="#FFF1F1" stroke="#762828" stroke-width="2"/>
<path d="M26.0835 54.875H46.9168" stroke="#874343" stroke-width="2.08333" stroke-linecap="round" stroke-linejoin="round"/>
<path d="M31.2915 47.5833H28.1665V54.875H31.2915V47.5833Z" stroke="#874343" stroke-width="2.08333" stroke-linejoin="round"/>
<path d="M38.0625 42.375H34.9375V54.875H38.0625V42.375Z" stroke="#874343" stroke-width="2.08333" stroke-linejoin="round"/>
<path d="M44.8335 36.125H41.7085V54.875H44.8335V36.125Z" stroke="#874343" stroke-width="2.08333" stroke-linejoin="round"/>
<path d="M74 45C74 50.5229 69.5229 55 64 55C58.4771 55 54 50.5229 54 45C54 39.4771 58.4771 35 64 35V45H74Z" stroke="#874343" stroke-width="2" stroke-linecap="round" stroke-linejoin="round"/>
<path d="M73.5422 42H67V35.4578C70.1101 36.4346 72.5654 38.8899 73.5422 42Z" stroke="#874343" stroke-width="2" stroke-linecap="round" stroke-linejoin="round"/>
</g>
<defs>
<filter id="filter0_d_2002_30" x="13.1958" y="9.66199" width="76.7871" height="10.436" filterUnits="userSpaceOnUse" color-interpolation-filters="sRGB">
<feFlood flood-opacity="0" result="BackgroundImageFix"/>
<feColorMatrix in="SourceAlpha" type="matrix" values="0 0 0 0 0 0 0 0 0 0 0 0 0 0 0 0 0 0 127 0" result="hardAlpha"/>
<feOffset dx="1" dy="1"/>
<feComposite in2="hardAlpha" operator="out"/>
<feColorMatrix type="matrix" values="0 0 0 0 0.264423 0 0 0 0 0.0470368 0 0 0 0 0.0470368 0 0 0 0.5 0"/>
<feBlend mode="normal" in2="BackgroundImageFix" result="effect1_dropShadow_2002_30"/>
<feBlend mode="normal" in="SourceGraphic" in2="effect1_dropShadow_2002_30" result="shape"/>
</filter>
<linearGradient id="paint0_linear_2002_30" x1="50" y1="100" x2="50" y2="0" gradientUnits="userSpaceOnUse">
<stop stop-color="#7A0000"/>
<stop offset="1" stop-color="#FFC7C6"/>
</linearGradient>
<clipPath id="clip0_2002_30">
<rect width="100" height="100" fill="white"/>
</clipPath>
</defs>
</svg>
